<svg id="Edit_button_-_graphic" data-name="Edit button - graphic" xmlns="http://www.w3.org/2000/svg" width="32" height="32" viewBox="0 0 32 32">
  <defs>
    <style>
      .cls-1, .cls-2, .cls-4 {
        fill: #fff;
      }

      .cls-2, .cls-5 {
        stroke: #004b6d;
      }

      .cls-3 {
        fill: #004b6d;
      }

      .cls-5, .cls-8 {
        fill: none;
      }

      .cls-5 {
        stroke-width: 3px;
      }

      .cls-6, .cls-7 {
        stroke: none;
      }

      .cls-7 {
        fill: #004b6d;
      }
    </style>
  </defs>
  <g id="Path_493" data-name="Path 493" class="cls-1">
    <path class="cls-6" d="M 16 31.5 C 11.85980033874512 31.5 7.967410087585449 29.88772010803223 5.039840221405029 26.96015930175781 C 2.112279891967773 24.03259086608887 0.5 20.14019966125488 0.5 16 C 0.5 11.85980033874512 2.112279891967773 7.967410087585449 5.039840221405029 5.039840221405029 C 7.967410087585449 2.112279891967773 11.85980033874512 0.5 16 0.5 C 20.14019966125488 0.5 24.03259086608887 2.112279891967773 26.96015930175781 5.039840221405029 C 29.88772010803223 7.967410087585449 31.5 11.85980033874512 31.5 16 C 31.5 20.14019966125488 29.88772010803223 24.03259086608887 26.96015930175781 26.96015930175781 C 24.03259086608887 29.88772010803223 20.14019966125488 31.5 16 31.5 Z"/>
    <path class="cls-7" d="M 16 1 C 11.99334907531738 1 8.226520538330078 2.560270309448242 5.393400192260742 5.393400192260742 C 2.560270309448242 8.226520538330078 1 11.99334907531738 1 16 C 1 20.00664901733398 2.560270309448242 23.77347946166992 5.393400192260742 26.60659980773926 C 8.226520538330078 29.43972969055176 11.99334907531738 31 16 31 C 20.00664901733398 31 23.77347946166992 29.43972969055176 26.60659980773926 26.60659980773926 C 29.43972969055176 23.77347946166992 31 20.00664901733398 31 16 C 31 11.99334907531738 29.43972969055176 8.226520538330078 26.60659980773926 5.393400192260742 C 23.77347946166992 2.560270309448242 20.00664901733398 1 16 1 M 16 0 C 24.8365592956543 0 32 7.163440704345703 32 16 C 32 24.8365592956543 24.8365592956543 32 16 32 C 7.163440704345703 32 0 24.8365592956543 0 16 C 0 7.163440704345703 7.163440704345703 0 16 0 Z"/>
  </g>
  <g id="Rectangle_55" data-name="Rectangle 55" class="cls-2" transform="translate(8 8)">
    <rect class="cls-6" width="16" height="16"/>
    <rect class="cls-8" x="0.5" y="0.5" width="15" height="15"/>
  </g>
  <path id="Path_9" data-name="Path 9" class="cls-3" d="M-946,254v-2l2,2Z" transform="translate(958 -234)"/>
  <rect id="Rectangle_56" data-name="Rectangle 56" class="cls-4" width="4" height="4" transform="translate(20 8)"/>
  <line id="Line_22" data-name="Line 22" class="cls-5" x1="10" y2="10" transform="translate(14 8)"/>
</svg>
